<svg 
 xmlns="http://www.w3.org/2000/svg"
 xmlns:xlink="http://www.w3.org/1999/xlink"
 width="34px" height="34px">
<defs>
<filter filterUnits="userSpaceOnUse" id="Filter_0" x="0px" y="0px" width="34px" height="34px"  >
    <feOffset in="SourceAlpha" dx="0" dy="1" />
    <feGaussianBlur result="blurOut" stdDeviation="1" />
    <feFlood flood-color="rgb(0, 0, 0)" result="floodOut" />
    <feComposite operator="atop" in="floodOut" in2="blurOut" />
    <feComponentTransfer><feFuncA type="linear" slope="0.25"/></feComponentTransfer>
    <feMerge>
    <feMergeNode/>
    <feMergeNode in="SourceGraphic"/>
  </feMerge>
</filter>

</defs>
<g filter="url(#Filter_0)">
<path fill-rule="evenodd"  fill="rgb(255, 255, 255)"
 d="M16.350,30.764 C7.872,30.764 1.000,23.882 1.000,15.393 C1.000,6.903 7.872,0.021 16.350,0.021 C24.828,0.021 31.700,6.903 31.700,15.393 C31.700,23.882 24.828,30.764 16.350,30.764 ZM16.721,6.969 C13.254,6.969 14.044,11.088 13.929,12.590 C13.929,12.601 11.809,12.590 11.809,12.590 L11.809,15.384 L13.922,15.384 L13.922,25.220 L17.434,25.220 L17.426,15.384 L19.779,15.384 L20.240,12.574 L17.434,12.605 C17.434,10.610 17.280,9.799 18.445,9.799 C18.549,9.799 20.251,9.795 20.251,9.795 L20.255,6.969 L16.721,6.969 Z"/>
</g>
</svg>